# xmcd
#
# Track frame offsets:
#	150
#	15062
#	33320
#	51377
#	64639
#	77885
#	95007
#	109635
#	123545
#	138405
#	153972
#	167905
#	181472
#	201205
#
# Disc length: 2929 seconds
#
# Revision: 1
# Processed by: cddbd v1.5.1PL2 Copyright (c) Steve Scherf et al.
# Submitted via: EasyCDDAExtractor 6.5.7.1
#
DISCID=b70b6f0e
DTITLE=Various Artist - Isto é Gauchada Tchê! vol 5
DYEAR=1900
DGENRE=Gaúchas
TTITLE0=Xirú Missioneiro - O rabo da cumadre
TTITLE1=Leonardo - Gaúcho macho
TTITLE2=Os Farrapos e Iedo Silva - A ponte que caiu
TTITLE3=Gaúcho Sulino - Pau de picolé
TTITLE4=Fogo de Chão - Nego Adão
TTITLE5=Grupo Manotaço - Machão
TTITLE6=Tchê Garotos - Na casa da luz vermeia
TTITLE7=José Araújo - Maxixando
TTITLE8=Os Galponeiros - Defendendo a sogra
TTITLE9=Tio Nonato - Vaneirão cuiudo
TTITLE10=Os Caciques - Casamento em bailanta
TTITLE11=Lobisomem - Seguro o pum
TTITLE12=Portal do Pampa - Bate coxa
TTITLE13=Ernesto Nunes - Garanhão do Rio Grande
EXTD=Isto é gauchada tchê - Vol 05
EXTT0=
EXTT1=
EXTT2=
EXTT3=
EXTT4=
EXTT5=
EXTT6=
EXTT7=
EXTT8=
EXTT9=
EXTT10=
EXTT11=
EXTT12=
EXTT13=
PLAYORDER=
